<svg width="40" height="40" viewBox="0 0 40 40" fill="none" xmlns="http://www.w3.org/2000/svg">
<path d="M5.20278 35.1009H37.2364C38.4158 35.1009 39.3719 36.0571 39.3719 37.2365C39.3719 38.416 38.4158 39.3721 37.2364 39.3721H3.06721C1.88777 39.3721 0.931641 38.416 0.931641 37.2365V3.06737C0.931641 1.88793 1.88777 0.931801 3.06721 0.931801C4.24666 0.931801 5.20278 1.88793 5.20278 3.06737V35.1009Z" fill="#4AD991"/>
<path opacity="0.5" d="M13.1674 25.8837C12.3608 26.7441 11.0093 26.7877 10.1489 25.9811C9.2884 25.1744 9.24481 23.8229 10.0515 22.9625L18.0599 14.4202C18.84 13.588 20.1364 13.5159 21.0041 14.2563L27.3248 19.65L35.5601 9.21856C36.291 8.29284 37.6339 8.13485 38.5596 8.86568C39.4853 9.59652 39.6433 10.9394 38.9125 11.8652L29.3024 24.0379C28.5518 24.9887 27.1615 25.1254 26.24 24.3391L19.7819 18.8282L13.1674 25.8837Z" fill="#4AD991"/>
</svg>
