<svg width="45" height="34" viewBox="0 0 45 34" fill="none" xmlns="http://www.w3.org/2000/svg">
<path opacity="0.587821" d="M33.1343 9.82981C36.167 9.82981 38.6263 12.2883 38.6265 15.321C38.6265 18.3539 36.1671 20.8132 33.1343 20.8132C30.1016 20.813 27.6431 18.3537 27.6431 15.321C27.6432 12.2885 30.1017 9.83006 33.1343 9.82981ZM16.6606 0.677467C20.7043 0.677633 23.9819 3.95603 23.9819 7.99973C23.9818 12.0433 20.7042 15.3209 16.6606 15.321C12.6169 15.321 9.33854 12.0434 9.33838 7.99973C9.33838 3.95593 12.6168 0.677467 16.6606 0.677467Z" fill="#8280FF"/>
<path d="M16.6306 18.9824C25.3946 18.9825 32.5952 23.1803 33.1316 32.162C33.1529 32.52 33.131 33.6257 31.7566 33.6259H1.51828C1.05921 33.6259 0.148579 32.636 0.187227 32.1601C0.896884 23.4239 7.98816 18.9824 16.6306 18.9824ZM32.406 22.6464C38.6411 22.7149 43.7328 25.8659 44.1159 32.5283C44.1313 32.7969 44.1148 33.6255 43.1228 33.6259H36.0642C36.0641 29.5065 34.7026 25.7052 32.406 22.6464Z" fill="#8280FF"/>
</svg>
