<svg width="18" height="17" viewBox="0 0 18 17" fill="none" xmlns="http://www.w3.org/2000/svg">
<path fill-rule="evenodd" clip-rule="evenodd" d="M5.60358 0.166687C6.77214 0.166687 7.719 1.12156 7.719 2.29999V5.14545C7.719 6.32389 6.77214 7.27877 5.60358 7.27877H2.78194C1.61339 7.27877 0.666504 6.32389 0.666504 5.14545V2.29999C0.666504 1.12156 1.61339 0.166687 2.78194 0.166687H5.60358ZM5.60358 9.72127C6.77214 9.72127 7.719 10.6762 7.719 11.8546V14.7C7.719 15.8777 6.77214 16.8334 5.60358 16.8334H2.78194C1.61339 16.8334 0.666504 15.8777 0.666504 14.7V11.8546C0.666504 10.6762 1.61339 9.72127 2.78194 9.72127H5.60358ZM12.3961 9.72127C11.2275 9.72127 10.2807 10.6762 10.2807 11.8546V14.7C10.2807 15.8777 11.2275 16.8334 12.3961 16.8334H15.2178C16.3863 16.8334 17.3332 15.8777 17.3332 14.7V11.8546C17.3332 10.6762 16.3863 9.72127 15.2178 9.72127H12.3961Z" fill="white"/>
</svg>
