<svg width="42" height="47" viewBox="0 0 42 47" fill="none" xmlns="http://www.w3.org/2000/svg">
<path fill-rule="evenodd" clip-rule="evenodd" d="M0.558838 16.3492L18.2695 26.5744C18.4602 26.6845 18.6602 26.7641 18.8637 26.8146V46.6459L1.82196 36.5606C1.03904 36.0973 0.558838 35.2551 0.558838 34.3453V16.3492ZM41.7449 16.0773V34.3453C41.7449 35.2551 41.2647 36.0973 40.4818 36.5606L23.44 46.6459V26.6408C23.4815 26.6201 23.5227 26.598 23.5634 26.5744L41.7449 16.0773Z" fill="#FEC53D"/>
<path opacity="0.499209" fill-rule="evenodd" clip-rule="evenodd" d="M1.11523 11.3862C1.33156 11.113 1.60461 10.8821 1.92295 10.7126L19.9418 1.11534C20.6983 0.712449 21.6056 0.712449 22.362 1.11534L40.3809 10.7126C40.6263 10.8433 40.8448 11.0104 41.0311 11.2053L21.2753 22.6113C21.1454 22.6863 21.0257 22.7721 20.9165 22.867C20.8074 22.7721 20.6876 22.6863 20.5577 22.6113L1.11523 11.3862Z" fill="#FEC53D"/>
</svg>
