<svg width="14" height="14" viewBox="0 0 14 14" fill="none" xmlns="http://www.w3.org/2000/svg">
<mask id="mask0_27280_1396" style="mask-type:luminance" maskUnits="userSpaceOnUse" x="0" y="0" width="14" height="14">
<rect x="0.395248" y="0.314453" width="13.3711" height="13.3711" fill="white"/>
</mask>
<g mask="url(#mask0_27280_1396)">
<path d="M2.62355 10.6629C2.62355 12.1788 4.6632 12.5711 7.0789 12.5711C9.4818 12.5711 11.5343 12.1928 11.5343 10.6768C11.5343 9.16088 9.49517 8.76866 7.0789 8.76866C4.67601 8.76866 2.62355 9.14751 2.62355 10.6629Z" fill="#464E5F"/>
<path opacity="0.4" d="M10.0274 4.37693C10.0274 2.74064 8.71589 1.4286 7.07905 1.4286C5.44278 1.4286 4.13074 2.74064 4.13074 4.37693C4.13074 6.01322 5.44278 7.32526 7.07905 7.32526C8.71589 7.32526 10.0274 6.01322 10.0274 4.37693Z" fill="#464E5F"/>
</g>
</svg>
