<svg width="14" height="15" viewBox="0 0 14 15" fill="currentColor" xmlns="http://www.w3.org/2000/svg">
<path d="M13.75 6.9375V13.6875C13.75 13.8367 13.6907 13.9798 13.5852 14.0852C13.4798 14.1907 13.3367 14.25 13.1875 14.25H9.25C9.10082 14.25 8.95774 14.1907 8.85225 14.0852C8.74676 13.9798 8.6875 13.8367 8.6875 13.6875V10.0312C8.6875 9.95666 8.65787 9.88512 8.60512 9.83237C8.55238 9.77963 8.48084 9.75 8.40625 9.75H5.59375C5.51916 9.75 5.44762 9.77963 5.39488 9.83237C5.34213 9.88512 5.3125 9.95666 5.3125 10.0312V13.6875C5.3125 13.8367 5.25324 13.9798 5.14775 14.0852C5.04226 14.1907 4.89918 14.25 4.75 14.25H0.8125C0.663316 14.25 0.520242 14.1907 0.414753 14.0852C0.309263 13.9798 0.25 13.8367 0.25 13.6875V6.9375C0.250138 6.63918 0.368755 6.35314 0.579766 6.14226L6.20477 0.517263C6.41572 0.306444 6.70176 0.188019 7 0.188019C7.29824 0.188019 7.58428 0.306444 7.79523 0.517263L13.4202 6.14226C13.6312 6.35314 13.7499 6.63918 13.75 6.9375Z" fill="currentColor"/>
</svg>
