<svg width="20" height="21" viewBox="0 0 20 21" fill="none" xmlns="http://www.w3.org/2000/svg">
<mask id="mask0_29229_56" style="mask-type:luminance" maskUnits="userSpaceOnUse" x="0" y="0" width="20" height="21">
<rect y="0.5" width="20" height="20" fill="white"/>
</mask>
<g mask="url(#mask0_29229_56)">
<path fill-rule="evenodd" clip-rule="evenodd" d="M16.0583 7.79922C16.2624 7.79822 16.466 7.77863 16.6665 7.74069V14.3846C16.6665 17.1797 15.0178 18.8334 12.2185 18.8334H6.1218C3.31526 18.8334 1.6665 17.1797 1.6665 14.3846V8.29679C1.6665 5.50167 3.31526 3.83337 6.1218 3.83337H12.7608C12.7214 4.03587 12.7018 4.24172 12.7022 4.44801C12.7022 6.29883 14.2048 7.79922 16.0583 7.79922ZM13.3397 9.84071V9.82604C13.5436 9.55212 13.4916 9.16579 13.2224 8.95529C13.0922 8.85479 12.9267 8.81125 12.7638 8.83471C12.6008 8.85812 12.4543 8.94654 12.3578 9.07971L10.3499 11.6626L8.06367 9.86262C7.93315 9.76096 7.7671 9.71604 7.60301 9.73804C7.43893 9.76012 7.29065 9.84721 7.19166 9.97971L4.72952 13.1553C4.64298 13.2632 4.59639 13.3976 4.59762 13.5358C4.58334 13.8151 4.75973 14.0689 5.02682 14.1532C5.2939 14.2375 5.58432 14.1311 5.73343 13.8944L7.79254 11.231L10.0788 13.0236C10.2088 13.1285 10.376 13.176 10.5418 13.1553C10.7077 13.1346 10.8579 13.0475 10.9582 12.9139L13.3397 9.84071Z" fill="currentColor"/>
<path opacity="0.4" d="M18.3332 4.24996C18.3332 3.09937 17.4004 2.16663 16.2498 2.16663C15.0992 2.16663 14.1665 3.09937 14.1665 4.24996C14.1665 5.40055 15.0992 6.33329 16.2498 6.33329C17.4004 6.33329 18.3332 5.40055 18.3332 4.24996Z" fill="currentColor"/>
</g>
</svg>
