<svg width="46" height="47" viewBox="0 0 46 47" fill="none" xmlns="http://www.w3.org/2000/svg">
<mask id="mask0_27281_2479" style="mask-type:luminance" maskUnits="userSpaceOnUse" x="0" y="0" width="46" height="47">
<rect y="0.5" width="46" height="46" fill="white"/>
</mask>
<g mask="url(#mask0_27281_2479)">
<path d="M7.66602 36.1014C7.66602 41.3166 14.6829 42.666 22.9936 42.666C31.2601 42.666 38.3211 41.3645 38.3211 36.1493C38.3211 30.9341 31.3061 29.5847 22.9936 29.5847C14.727 29.5847 7.66602 30.8881 7.66602 36.1014Z" fill="#4379EE"/>
<path opacity="0.4" d="M33.137 14.4759C33.137 8.84664 28.6252 4.33289 22.994 4.33289C17.3648 4.33289 12.8511 8.84664 12.8511 14.4759C12.8511 20.1051 17.3648 24.6189 22.994 24.6189C28.6252 24.6189 33.137 20.1051 33.137 14.4759Z" fill="#4379EE"/>
</g>
</svg>
