<svg width="20" height="21" viewBox="0 0 20 21" fill="none" xmlns="http://www.w3.org/2000/svg">
<mask id="mask0_29229_145" style="mask-type:luminance" maskUnits="userSpaceOnUse" x="0" y="0" width="20" height="21">
<rect y="0.5" width="20" height="20" fill="white"/>
</mask>
<g mask="url(#mask0_29229_145)">
<path d="M3.33301 15.9788C3.33301 18.2463 6.38384 18.833 9.99716 18.833C13.5913 18.833 16.6613 18.2672 16.6613 15.9997C16.6613 13.7322 13.6113 13.1455 9.99716 13.1455C6.40301 13.1455 3.33301 13.7122 3.33301 15.9788Z" fill="currentColor"/>
<path opacity="0.4" d="M14.4074 6.57644C14.4074 4.12894 12.4457 2.16644 9.99738 2.16644C7.5499 2.16644 5.5874 4.12894 5.5874 6.57644C5.5874 9.02394 7.5499 10.9864 9.99738 10.9864C12.4457 10.9864 14.4074 9.02394 14.4074 6.57644Z" fill="currentColor"/>
</g>
</svg>
