<svg width="24" height="24" viewBox="0 0 24 24" fill="none" xmlns="http://www.w3.org/2000/svg">
<circle cx="3.40426" cy="3.40426" r="3.40426" transform="matrix(-1 0 0 1 15.6172 4.99994)" stroke="currentColor" stroke-width="1.5"/>
<path d="M6.25537 16.8594C6.25537 16.1271 6.71567 15.474 7.40524 15.2277V15.2277C10.5141 14.1174 13.9115 14.1174 17.0204 15.2277V15.2277C17.71 15.474 18.1703 16.1271 18.1703 16.8594V17.9789C18.1703 18.9895 17.2752 19.7658 16.2748 19.6229L15.9412 19.5753C13.4682 19.222 10.9575 19.222 8.48442 19.5753L8.15087 19.6229C7.15044 19.7658 6.25537 18.9895 6.25537 17.9789V16.8594Z" stroke="currentColor" stroke-width="1.5"/>
<path d="M17.3194 11.9027C18.7966 11.9027 19.9941 10.7051 19.9941 9.2279C19.9941 7.75067 18.7966 6.55313 17.3194 6.55313" stroke="currentColor" stroke-width="1.5" stroke-linecap="round"/>
<path d="M20.2491 18.005L20.5111 18.0424C21.2972 18.1547 22.0005 17.5448 22.0005 16.7508V15.8711C22.0005 15.2958 21.6388 14.7826 21.097 14.5891C20.5565 14.396 20.005 14.2457 19.4473 14.1381" stroke="currentColor" stroke-width="1.5" stroke-linecap="round"/>
<path d="M6.68063 11.9027C5.2034 11.9027 4.00586 10.7051 4.00586 9.2279C4.00586 7.75067 5.2034 6.55313 6.68063 6.55313" stroke="currentColor" stroke-width="1.5" stroke-linecap="round"/>
<path d="M3.75143 18.005L3.48935 18.0424C2.7033 18.1547 2.00003 17.5448 2.00003 16.7508V15.8711C2.00003 15.2958 2.3617 14.7826 2.9035 14.5891C3.44395 14.396 3.99549 14.2457 4.55322 14.1381" stroke="currentColor" stroke-width="1.5" stroke-linecap="round"/>
</svg>
