<svg width="42" height="44" viewBox="0 0 42 44" fill="none" xmlns="http://www.w3.org/2000/svg">
<circle cx="5.95745" cy="5.95745" r="5.95745" transform="matrix(-1 0 0 1 27.3301 9.73318)" stroke="white" stroke-width="2.625"/>
<path d="M10.9473 30.4872C10.9473 29.2058 11.7528 28.0628 12.9595 27.6318V27.6318C18.4001 25.6887 24.3455 25.6887 29.7861 27.6318V27.6318C30.9928 28.0628 31.7983 29.2058 31.7983 30.4872V32.4465C31.7983 34.215 30.232 35.5735 28.4812 35.3234L27.8975 35.24C23.5697 34.6217 19.1759 34.6217 14.8481 35.24L14.2644 35.3234C12.5136 35.5735 10.9473 34.215 10.9473 32.4465V30.4872Z" stroke="white" stroke-width="2.625"/>
<path d="M30.3074 21.813C32.8926 21.813 34.9883 19.7173 34.9883 17.1321C34.9883 14.547 32.8926 12.4513 30.3074 12.4513" stroke="white" stroke-width="2.625" stroke-linecap="round"/>
<path d="M35.4344 32.492L35.893 32.5575C37.2686 32.7541 38.4993 31.6867 38.4993 30.2971V28.7577C38.4993 27.7509 37.8664 26.8528 36.9183 26.5141C35.9725 26.1764 35.0073 25.9133 34.0312 25.725" stroke="white" stroke-width="2.625" stroke-linecap="round"/>
<path d="M11.6926 21.813C9.10741 21.813 7.01172 19.7173 7.01172 17.1321C7.01172 14.547 9.10741 12.4513 11.6926 12.4513" stroke="white" stroke-width="2.625" stroke-linecap="round"/>
<path d="M6.56561 32.492L6.10697 32.5575C4.73139 32.7541 3.50067 31.6867 3.50067 30.2971V28.7577C3.50067 27.7509 4.13358 26.8528 5.08173 26.5141C6.02752 26.1764 6.99272 25.9133 7.96875 25.725" stroke="white" stroke-width="2.625" stroke-linecap="round"/>
</svg>
